<?xml version="1.0" encoding="utf-8"?>
<!-- Generator: Adobe Illustrator 24.2.0, SVG Export Plug-In . SVG Version: 6.00 Build 0)  -->
<svg version="1.1" id="Layer_1" xmlns="http://www.w3.org/2000/svg" xmlns:xlink="http://www.w3.org/1999/xlink" x="0px" y="0px"
	 viewBox="0 0 841.9 595.3" style="enable-background:new 0 0 841.9 595.3;" xml:space="preserve">
<style type="text/css">
	.st0{fill:none;stroke:url(#SVGID_1_);stroke-width:21;stroke-linecap:round;stroke-linejoin:round;stroke-miterlimit:10;}
	.st1{fill:none;stroke:url(#SVGID_2_);stroke-width:21;stroke-linecap:round;stroke-linejoin:round;stroke-miterlimit:10;}
	.st2{fill:none;stroke:url(#SVGID_3_);stroke-width:21;stroke-linecap:round;stroke-linejoin:round;stroke-miterlimit:10;}
	.st3{fill:none;stroke:url(#SVGID_4_);stroke-width:21;stroke-linecap:round;stroke-linejoin:round;stroke-miterlimit:10;}
	.st4{fill:none;stroke:url(#SVGID_5_);stroke-width:21;stroke-linecap:round;stroke-linejoin:round;stroke-miterlimit:10;}
	.st5{fill:none;stroke:url(#SVGID_6_);stroke-width:21;stroke-linecap:round;stroke-linejoin:round;stroke-miterlimit:10;}
</style>
<g>
	<linearGradient id="SVGID_1_" gradientUnits="userSpaceOnUse" x1="186.8005" y1="297.65" x2="334.8681" y2="297.65">
		<stop  offset="0" style="stop-color:#FFFFFF"/>
		<stop  offset="1" style="stop-color:#000000"/>
	</linearGradient>
	<path class="st0" d="M324.4,396.6c0,35.1-28.4,63.5-63.5,63.5s-63.5-28.4-63.5-63.5V135.1"/>
	<linearGradient id="SVGID_2_" gradientUnits="userSpaceOnUse" x1="313.8681" y1="322.7201" x2="589.0035" y2="322.7201">
		<stop  offset="0" style="stop-color:#FFFFFF"/>
		<stop  offset="1" style="stop-color:#000000"/>
	</linearGradient>
	<path class="st1" d="M578.5,396.6c0,35.1-28.4,63.5-63.5,63.5s-63.5-28.4-63.5-63.5V248.5l0,0c0-35.1-28.4-63.2-63.5-63.2
		s-63.5,28.4-63.5,63.5"/>
	<linearGradient id="SVGID_3_" gradientUnits="userSpaceOnUse" x1="578.5035" y1="396.6161" x2="578.5035" y2="396.6161">
		<stop  offset="0" style="stop-color:#FFFFFF"/>
		<stop  offset="1" style="stop-color:#000000"/>
	</linearGradient>
	<path class="st2" d="M578.5,396.6"/>
	<linearGradient id="SVGID_4_" gradientUnits="userSpaceOnUse" x1="568.0035" y1="191.836" x2="589.0035" y2="191.836">
		<stop  offset="0" style="stop-color:#FFFFFF"/>
		<stop  offset="1" style="stop-color:#000000"/>
	</linearGradient>
	<line class="st3" x1="578.5" y1="135.1" x2="578.5" y2="248.5"/>
	<linearGradient id="SVGID_5_" gradientUnits="userSpaceOnUse" x1="246.6506" y1="324.7904" x2="399.497" y2="324.7904">
		<stop  offset="0" style="stop-color:#FFFFFF"/>
		<stop  offset="1" style="stop-color:#000000"/>
	</linearGradient>
	<line class="st4" x1="257.2" y1="324.8" x2="389" y2="324.8"/>
	<linearGradient id="SVGID_6_" gradientUnits="userSpaceOnUse" x1="502.2531" y1="324.7904" x2="655.0995" y2="324.7904">
		<stop  offset="0" style="stop-color:#FFFFFF"/>
		<stop  offset="1" style="stop-color:#000000"/>
	</linearGradient>
	<line class="st5" x1="512.8" y1="324.8" x2="644.6" y2="324.8"/>
</g>
</svg>
